<?xml version="1.0" standalone="no"?>
<!DOCTYPE svg PUBLIC "-//W3C//DTD SVG 20010904//EN"
 "http://www.w3.org/TR/2001/REC-SVG-20010904/DTD/svg10.dtd">
<svg version="1.0" xmlns="http://www.w3.org/2000/svg"
 width="140.000000pt" height="149.000000pt" viewBox="0 0 140.000000 149.000000"
 preserveAspectRatio="xMidYMid meet">

<g transform="translate(0.000000,149.000000) scale(0.100000,-0.100000)"
fill="#313F48" stroke="none">
<path d="M565 1260 c-211 -43 -375 -206 -421 -418 -17 -85 -17 -130 1 -217 44
-209 213 -375 423 -416 314 -60 611 171 630 489 9 161 -36 287 -144 402 -126
134 -314 195 -489 160z m201 -11 c191 -34 359 -193 409 -384 88 -340 -190
-676 -540 -652 -193 14 -358 126 -440 299 -182 385 150 813 571 737z"/>
<path d="M590 1107 c-118 -27 -217 -106 -268 -215 -24 -50 -27 -70 -27 -157 0
-93 2 -105 33 -167 74 -151 240 -238 398 -209 131 24 232 101 287 219 29 60
32 77 32 157 0 77 -4 99 -27 148 -34 72 -73 119 -133 163 -84 59 -197 82 -295
61z"/>
</g>
</svg>
