<?xml version="1.0" standalone="no"?>
<!DOCTYPE svg PUBLIC "-//W3C//DTD SVG 20010904//EN"
 "http://www.w3.org/TR/2001/REC-SVG-20010904/DTD/svg10.dtd">
<svg version="1.0" xmlns="http://www.w3.org/2000/svg"
 width="740.000000pt" height="738.000000pt" viewBox="0 0 740.000000 738.000000"
 preserveAspectRatio="xMidYMid meet">

<g transform="translate(0.000000,738.000000) scale(0.100000,-0.100000)"
fill="#313F48" stroke="none">
<path d="M3505 7344 c-328 -25 -573 -66 -825 -139 -1246 -359 -2210 -1352
-2536 -2613 -79 -307 -109 -555 -109 -907 0 -283 9 -392 50 -633 141 -817 564
-1570 1188 -2119 557 -490 1222 -788 1982 -890 187 -25 697 -25 880 0 587 81
1087 262 1548 563 931 608 1520 1556 1654 2664 24 198 24 641 0 825 -26 194
-54 344 -94 500 -357 1393 -1512 2459 -2928 2700 -228 38 -630 63 -810 49z
m590 -90 c704 -76 1370 -365 1930 -836 124 -104 372 -360 478 -493 427 -533
688 -1172 769 -1880 18 -164 16 -588 -6 -765 -61 -519 -233 -1023 -495 -1455
-558 -921 -1500 -1546 -2561 -1699 -363 -53 -772 -46 -1150 19 -356 61 -763
205 -1092 386 -474 261 -908 649 -1213 1085 -347 494 -553 1035 -631 1649 -22
173 -25 623 -6 790 81 694 327 1303 741 1835 630 809 1570 1308 2597 1380 164
11 458 4 639 -16z"/>
<path d="M3510 6294 c-19 -2 -78 -9 -130 -15 -374 -42 -795 -195 -1115 -406
-433 -286 -781 -700 -978 -1164 -205 -482 -260 -1023 -156 -1542 68 -341 193
-640 394 -942 355 -532 899 -918 1515 -1075 247 -63 348 -74 655 -74 302 0
406 11 637 70 636 161 1188 554 1550 1102 207 315 336 651 400 1043 18 110 22
178 22 379 1 251 -6 330 -45 530 -153 773 -671 1455 -1379 1814 -267 136 -526
218 -830 261 -108 16 -463 28 -540 19z"/>
</g>
</svg>
