<?xml version="1.0" standalone="no"?>
<!DOCTYPE svg PUBLIC "-//W3C//DTD SVG 20010904//EN"
 "http://www.w3.org/TR/2001/REC-SVG-20010904/DTD/svg10.dtd">
<svg version="1.0" xmlns="http://www.w3.org/2000/svg"
 width="642.000000pt" height="646.000000pt" viewBox="0 0 642.000000 646.000000"
 preserveAspectRatio="xMidYMid meet">

<g transform="translate(0.000000,646.000000) scale(0.100000,-0.100000)"
fill="#313F48" stroke="none">
<path d="M3110 6369 c-63 -28 -2995 -2957 -3036 -3033 -35 -64 -37 -151 -6
-211 31 -59 3006 -3030 3054 -3050 52 -21 134 -19 188 6 35 15 367 342 1533
1507 889 888 1497 1503 1510 1527 33 61 31 165 -5 225 -16 26 -649 666 -1520
1536 -1305 1303 -1498 1492 -1534 1502 -62 18 -133 14 -184 -9z m177 -39 c37
-14 2998 -2973 3024 -3022 25 -48 25 -118 0 -166 -25 -46 -2974 -2994 -3018
-3016 -40 -20 -125 -21 -161 -2 -15 8 -698 687 -1519 1508 -1062 1062 -1497
1504 -1508 1530 -20 50 -19 84 6 138 15 35 338 364 1487 1514 807 807 1487
1481 1511 1497 49 32 122 39 178 19z"/>
<path d="M3115 5474 c-47 -14 -119 -84 -1109 -1072 -814 -813 -1063 -1067
-1078 -1102 -24 -51 -27 -127 -9 -185 11 -33 195 -222 1065 -1093 816 -817
1062 -1058 1100 -1077 59 -29 137 -33 194 -10 52 22 2146 2113 2173 2170 25
54 24 137 -2 195 -15 35 -252 277 -1067 1093 -710 710 -1060 1054 -1087 1067
-58 27 -121 32 -180 14z"/>
</g>
</svg>
