<?xml version="1.0" standalone="no"?>
<!DOCTYPE svg PUBLIC "-//W3C//DTD SVG 20010904//EN"
 "http://www.w3.org/TR/2001/REC-SVG-20010904/DTD/svg10.dtd">
<svg version="1.0" xmlns="http://www.w3.org/2000/svg"
 width="333.000000pt" height="305.000000pt" viewBox="0 0 333.000000 305.000000"
 preserveAspectRatio="xMidYMid meet">
<metadata>
Created by potrace 1.16, written by Peter Selinger 2001-2019
</metadata>
<g transform="translate(0.000000,305.000000) scale(0.100000,-0.100000)"
fill="#313F48" stroke="none">
<path d="M1605 2851 c-16 -10 -310 -300 -652 -642 -419 -421 -624 -633 -628
-651 -4 -16 -4 -40 0 -55 8 -35 1244 -1275 1293 -1299 20 -9 44 -13 60 -9 37
9 1309 1279 1317 1315 3 15 1 40 -5 56 -11 30 -1193 1222 -1264 1275 -45 34
-79 36 -121 10z m729 -650 c617 -617 648 -650 642 -677 -5 -20 -199 -221 -649
-672 -503 -502 -648 -642 -667 -642 -19 0 -165 140 -668 643 -353 353 -645
652 -648 663 -3 12 1 35 10 50 16 32 1239 1255 1271 1273 11 6 29 11 40 11 13
0 238 -218 669 -649z"/>
<path d="M1148 2023 l-458 -458 0 -45 0 -45 458 -457 457 -458 45 0 45 0 457
458 458 457 0 45 0 45 -458 457 -457 458 -45 0 -44 0 -458 -457z"/>
</g>
</svg>
