<?xml version="1.0" standalone="no"?>
<!DOCTYPE svg PUBLIC "-//W3C//DTD SVG 20010904//EN"
 "http://www.w3.org/TR/2001/REC-SVG-20010904/DTD/svg10.dtd">
<svg version="1.0" xmlns="http://www.w3.org/2000/svg"
 width="113.000000pt" height="115.000000pt" viewBox="0 0 113.000000 115.000000"
 preserveAspectRatio="xMidYMid meet">

<g transform="translate(0.000000,115.000000) scale(0.100000,-0.100000)"
fill="#313F48" stroke="none">
<path d="M190 558 l0 -459 22 12 c12 6 179 104 372 217 193 112 361 209 374
215 12 6 21 14 20 19 -2 4 -180 109 -396 232 l-392 223 0 -459z m282 284 c434
-245 487 -277 480 -284 -6 -6 -686 -404 -733 -428 -19 -10 -19 -2 -19 425 0
239 2 435 4 435 3 0 123 -67 268 -148z"/>
<path d="M260 554 c0 -185 4 -334 8 -332 28 10 562 331 562 336 0 4 -102 66
-227 137 -125 72 -252 145 -281 163 -30 17 -56 32 -58 32 -2 0 -4 -151 -4
-336z"/>
</g>
</svg>
