<?xml version="1.0" standalone="no"?>
<!DOCTYPE svg PUBLIC "-//W3C//DTD SVG 20010904//EN"
 "http://www.w3.org/TR/2001/REC-SVG-20010904/DTD/svg10.dtd">
<svg version="1.0" xmlns="http://www.w3.org/2000/svg"
 width="645.000000pt" height="736.000000pt" viewBox="0 0 645.000000 736.000000"
 preserveAspectRatio="xMidYMid meet">

<g transform="translate(0.000000,736.000000) scale(0.100000,-0.100000)"
fill="#313F48" stroke="none">
<path d="M3267 5452 c-1692 -977 -3077 -1779 -3077 -1782 0 -3 1385 -805 3078
-1783 l3077 -1776 3 1779 c1 979 1 2581 0 3559 l-3 1780 -3078 -1777z m3023
-1782 c0 -1897 -3 -3450 -6 -3450 -10 0 -5974 3444 -5974 3450 0 6 5961 3449
5973 3450 4 0 7 -1552 7 -3450z"/>
<path d="M3568 4997 c-1231 -711 -2237 -1294 -2237 -1297 -1 -7 4465 -2584
4484 -2588 13 -3 15 284 15 2587 0 2067 -3 2591 -12 2590 -7 0 -1020 -582
-2250 -1292z"/>
</g>
</svg>
