<?xml version="1.0" standalone="no"?>
<!DOCTYPE svg PUBLIC "-//W3C//DTD SVG 20010904//EN"
 "http://www.w3.org/TR/2001/REC-SVG-20010904/DTD/svg10.dtd">
<svg version="1.0" xmlns="http://www.w3.org/2000/svg"
 width="124.000000pt" height="142.000000pt" viewBox="0 0 124.000000 142.000000"
 preserveAspectRatio="xMidYMid meet">

<g transform="translate(0.000000,142.000000) scale(0.100000,-0.100000)"
fill="#313F48" stroke="none">
<path d="M591 983 c-255 -148 -463 -273 -463 -278 1 -6 209 -130 464 -277
l463 -268 3 276 c1 151 1 397 0 545 l-3 270 -464 -268z m449 -278 c0 -283 -1
-515 -3 -515 -13 0 -879 508 -880 515 0 9 857 512 876 514 4 1 7 -231 7 -514z"/>
<path d="M635 910 c-181 -104 -330 -195 -330 -200 0 -10 655 -393 662 -387 2
2 2 178 1 391 l-3 386 -330 -190z"/>
</g>
</svg>
