<?xml version="1.0" standalone="no"?>
<!DOCTYPE svg PUBLIC "-//W3C//DTD SVG 20010904//EN"
 "http://www.w3.org/TR/2001/REC-SVG-20010904/DTD/svg10.dtd">
<svg version="1.0" xmlns="http://www.w3.org/2000/svg"
 width="645.000000pt" height="736.000000pt" viewBox="0 0 645.000000 736.000000"
 preserveAspectRatio="xMidYMid meet">

<g transform="translate(0.000000,736.000000) scale(0.100000,-0.100000)"
fill="#313F48" stroke="none">
<path d="M80 3669 c0 -2165 4 -3629 9 -3627 21 8 6281 3623 6281 3628 0 6
-6275 3630 -6284 3630 -3 0 -6 -1634 -6 -3631z m3153 1746 c2223 -1283 3012
-1743 3004 -1751 -14 -12 -6056 -3500 -6081 -3510 -15 -6 -16 256 -16 3520 l0
3527 39 -23 c21 -13 1396 -806 3054 -1763z"/>
<path d="M620 3641 l0 -2651 48 27 c2185 1259 4532 2619 4530 2625 -2 4 -1011
590 -2243 1301 -1232 711 -2261 1306 -2287 1321 l-48 28 0 -2651z"/>
</g>
</svg>
