<?xml version="1.0" standalone="no"?>
<!DOCTYPE svg PUBLIC "-//W3C//DTD SVG 20010904//EN"
 "http://www.w3.org/TR/2001/REC-SVG-20010904/DTD/svg10.dtd">
<svg version="1.0" xmlns="http://www.w3.org/2000/svg"
 width="844.000000pt" height="727.000000pt" viewBox="0 0 844.000000 727.000000"
 preserveAspectRatio="xMidYMid meet">

<g transform="translate(0.000000,727.000000) scale(0.100000,-0.100000)"
fill="#041120" stroke="none">
<path d="M2178 3666 c-1132 -1960 -2060 -3570 -2064 -3579 -6 -16 284 -17
4126 -17 l4132 0 -14 23 c-8 12 -936 1620 -2063 3572 -1126 1953 -2051 3553
-2054 3557 -4 4 -932 -1596 -2063 -3556z m4063 -54 l1996 -3457 -1998 -3
c-1098 -1 -2899 -1 -4001 0 l-2003 3 1999 3463 c1099 1904 2002 3460 2005
3457 3 -4 904 -1562 2002 -3463z"/>
</g>
</svg>
